<mxfile host="app.diagrams.net" agent="Mozilla/5.0 (Windows NT 10.0; Win64; x64) AppleWebKit/537.36 (KHTML, like Gecko) Chrome/133.0.0.0 Safari/537.36" version="26.0.14">
  <diagram name="Pagina-1" id="AFX7Q0Dv63f_yIKql30r">
    <mxGraphModel dx="1050" dy="557" grid="1" gridSize="10" guides="1" tooltips="1" connect="1" arrows="1" fold="1" page="1" pageScale="1" pageWidth="827" pageHeight="1169" math="0" shadow="0">
      <root>
        <mxCell id="0" />
        <mxCell id="1" parent="0" />
        <mxCell id="JVUqe7tK0VFMZShzAbX8-3" value="" style="edgeStyle=orthogonalEdgeStyle;rounded=0;orthogonalLoop=1;jettySize=auto;html=1;" edge="1" parent="1" source="JVUqe7tK0VFMZShzAbX8-1" target="JVUqe7tK0VFMZShzAbX8-2">
          <mxGeometry relative="1" as="geometry" />
        </mxCell>
        <mxCell id="JVUqe7tK0VFMZShzAbX8-1" value="START" style="ellipse;whiteSpace=wrap;html=1;" vertex="1" parent="1">
          <mxGeometry x="384" y="30" width="120" height="80" as="geometry" />
        </mxCell>
        <mxCell id="JVUqe7tK0VFMZShzAbX8-6" value="" style="edgeStyle=orthogonalEdgeStyle;rounded=0;orthogonalLoop=1;jettySize=auto;html=1;" edge="1" parent="1" source="JVUqe7tK0VFMZShzAbX8-2">
          <mxGeometry relative="1" as="geometry">
            <mxPoint x="444" y="240" as="targetPoint" />
          </mxGeometry>
        </mxCell>
        <mxCell id="JVUqe7tK0VFMZShzAbX8-2" value="read int: n" style="shape=parallelogram;perimeter=parallelogramPerimeter;whiteSpace=wrap;html=1;fixedSize=1;" vertex="1" parent="1">
          <mxGeometry x="384" y="139" width="120" height="60" as="geometry" />
        </mxCell>
        <mxCell id="JVUqe7tK0VFMZShzAbX8-14" value="" style="edgeStyle=orthogonalEdgeStyle;rounded=0;orthogonalLoop=1;jettySize=auto;html=1;" edge="1" parent="1" source="JVUqe7tK0VFMZShzAbX8-12" target="JVUqe7tK0VFMZShzAbX8-13">
          <mxGeometry relative="1" as="geometry" />
        </mxCell>
        <mxCell id="JVUqe7tK0VFMZShzAbX8-15" value="true" style="edgeLabel;html=1;align=center;verticalAlign=middle;resizable=0;points=[];" vertex="1" connectable="0" parent="JVUqe7tK0VFMZShzAbX8-14">
          <mxGeometry x="-0.1581" y="1" relative="1" as="geometry">
            <mxPoint as="offset" />
          </mxGeometry>
        </mxCell>
        <mxCell id="JVUqe7tK0VFMZShzAbX8-17" value="" style="edgeStyle=orthogonalEdgeStyle;rounded=0;orthogonalLoop=1;jettySize=auto;html=1;" edge="1" parent="1" source="JVUqe7tK0VFMZShzAbX8-12" target="JVUqe7tK0VFMZShzAbX8-16">
          <mxGeometry relative="1" as="geometry" />
        </mxCell>
        <mxCell id="JVUqe7tK0VFMZShzAbX8-21" value="false" style="edgeLabel;html=1;align=center;verticalAlign=middle;resizable=0;points=[];" vertex="1" connectable="0" parent="JVUqe7tK0VFMZShzAbX8-17">
          <mxGeometry x="-0.352" y="2" relative="1" as="geometry">
            <mxPoint as="offset" />
          </mxGeometry>
        </mxCell>
        <mxCell id="JVUqe7tK0VFMZShzAbX8-12" value="n == 1" style="rhombus;whiteSpace=wrap;html=1;" vertex="1" parent="1">
          <mxGeometry x="368" y="240" width="150" height="80" as="geometry" />
        </mxCell>
        <mxCell id="JVUqe7tK0VFMZShzAbX8-34" value="" style="edgeStyle=orthogonalEdgeStyle;rounded=0;orthogonalLoop=1;jettySize=auto;html=1;" edge="1" parent="1" source="JVUqe7tK0VFMZShzAbX8-13" target="JVUqe7tK0VFMZShzAbX8-33">
          <mxGeometry relative="1" as="geometry" />
        </mxCell>
        <mxCell id="JVUqe7tK0VFMZShzAbX8-13" value="write &quot;1st&quot;" style="shape=parallelogram;perimeter=parallelogramPerimeter;whiteSpace=wrap;html=1;fixedSize=1;" vertex="1" parent="1">
          <mxGeometry x="174" y="252" width="120" height="60" as="geometry" />
        </mxCell>
        <mxCell id="JVUqe7tK0VFMZShzAbX8-19" value="" style="edgeStyle=orthogonalEdgeStyle;rounded=0;orthogonalLoop=1;jettySize=auto;html=1;" edge="1" parent="1" source="JVUqe7tK0VFMZShzAbX8-16" target="JVUqe7tK0VFMZShzAbX8-18">
          <mxGeometry relative="1" as="geometry" />
        </mxCell>
        <mxCell id="JVUqe7tK0VFMZShzAbX8-20" value="true" style="edgeLabel;html=1;align=center;verticalAlign=middle;resizable=0;points=[];" vertex="1" connectable="0" parent="JVUqe7tK0VFMZShzAbX8-19">
          <mxGeometry x="-0.0945" y="-2" relative="1" as="geometry">
            <mxPoint as="offset" />
          </mxGeometry>
        </mxCell>
        <mxCell id="JVUqe7tK0VFMZShzAbX8-23" value="" style="edgeStyle=orthogonalEdgeStyle;rounded=0;orthogonalLoop=1;jettySize=auto;html=1;" edge="1" parent="1" source="JVUqe7tK0VFMZShzAbX8-16" target="JVUqe7tK0VFMZShzAbX8-22">
          <mxGeometry relative="1" as="geometry" />
        </mxCell>
        <mxCell id="JVUqe7tK0VFMZShzAbX8-27" value="false" style="edgeLabel;html=1;align=center;verticalAlign=middle;resizable=0;points=[];" vertex="1" connectable="0" parent="JVUqe7tK0VFMZShzAbX8-23">
          <mxGeometry x="-0.14" y="1" relative="1" as="geometry">
            <mxPoint as="offset" />
          </mxGeometry>
        </mxCell>
        <mxCell id="JVUqe7tK0VFMZShzAbX8-16" value="n == 2" style="rhombus;whiteSpace=wrap;html=1;" vertex="1" parent="1">
          <mxGeometry x="368" y="372" width="150" height="80" as="geometry" />
        </mxCell>
        <mxCell id="JVUqe7tK0VFMZShzAbX8-36" value="" style="edgeStyle=orthogonalEdgeStyle;rounded=0;orthogonalLoop=1;jettySize=auto;html=1;" edge="1" parent="1" source="JVUqe7tK0VFMZShzAbX8-18" target="JVUqe7tK0VFMZShzAbX8-35">
          <mxGeometry relative="1" as="geometry" />
        </mxCell>
        <mxCell id="JVUqe7tK0VFMZShzAbX8-18" value="write &quot;&quot;2nd" style="shape=parallelogram;perimeter=parallelogramPerimeter;whiteSpace=wrap;html=1;fixedSize=1;" vertex="1" parent="1">
          <mxGeometry x="169" y="382" width="120" height="60" as="geometry" />
        </mxCell>
        <mxCell id="JVUqe7tK0VFMZShzAbX8-25" value="" style="edgeStyle=orthogonalEdgeStyle;rounded=0;orthogonalLoop=1;jettySize=auto;html=1;" edge="1" parent="1" source="JVUqe7tK0VFMZShzAbX8-22" target="JVUqe7tK0VFMZShzAbX8-24">
          <mxGeometry relative="1" as="geometry" />
        </mxCell>
        <mxCell id="JVUqe7tK0VFMZShzAbX8-26" value="true" style="edgeLabel;html=1;align=center;verticalAlign=middle;resizable=0;points=[];" vertex="1" connectable="0" parent="JVUqe7tK0VFMZShzAbX8-25">
          <mxGeometry x="-0.0505" relative="1" as="geometry">
            <mxPoint as="offset" />
          </mxGeometry>
        </mxCell>
        <mxCell id="JVUqe7tK0VFMZShzAbX8-29" value="" style="edgeStyle=orthogonalEdgeStyle;rounded=0;orthogonalLoop=1;jettySize=auto;html=1;" edge="1" parent="1" source="JVUqe7tK0VFMZShzAbX8-22" target="JVUqe7tK0VFMZShzAbX8-28">
          <mxGeometry relative="1" as="geometry" />
        </mxCell>
        <mxCell id="JVUqe7tK0VFMZShzAbX8-30" value="false" style="edgeLabel;html=1;align=center;verticalAlign=middle;resizable=0;points=[];" vertex="1" connectable="0" parent="JVUqe7tK0VFMZShzAbX8-29">
          <mxGeometry x="-0.35" y="-3" relative="1" as="geometry">
            <mxPoint as="offset" />
          </mxGeometry>
        </mxCell>
        <mxCell id="JVUqe7tK0VFMZShzAbX8-22" value="n == 3" style="rhombus;whiteSpace=wrap;html=1;" vertex="1" parent="1">
          <mxGeometry x="368" y="492" width="150" height="80" as="geometry" />
        </mxCell>
        <mxCell id="JVUqe7tK0VFMZShzAbX8-38" value="" style="edgeStyle=orthogonalEdgeStyle;rounded=0;orthogonalLoop=1;jettySize=auto;html=1;" edge="1" parent="1" source="JVUqe7tK0VFMZShzAbX8-24" target="JVUqe7tK0VFMZShzAbX8-37">
          <mxGeometry relative="1" as="geometry" />
        </mxCell>
        <mxCell id="JVUqe7tK0VFMZShzAbX8-24" value="write &quot;3rd&quot;" style="shape=parallelogram;perimeter=parallelogramPerimeter;whiteSpace=wrap;html=1;fixedSize=1;" vertex="1" parent="1">
          <mxGeometry x="169" y="502" width="120" height="60" as="geometry" />
        </mxCell>
        <mxCell id="JVUqe7tK0VFMZShzAbX8-32" value="" style="edgeStyle=orthogonalEdgeStyle;rounded=0;orthogonalLoop=1;jettySize=auto;html=1;" edge="1" parent="1" source="JVUqe7tK0VFMZShzAbX8-28" target="JVUqe7tK0VFMZShzAbX8-31">
          <mxGeometry relative="1" as="geometry" />
        </mxCell>
        <mxCell id="JVUqe7tK0VFMZShzAbX8-51" value="true" style="edgeLabel;html=1;align=center;verticalAlign=middle;resizable=0;points=[];" vertex="1" connectable="0" parent="JVUqe7tK0VFMZShzAbX8-32">
          <mxGeometry x="-0.168" y="2" relative="1" as="geometry">
            <mxPoint as="offset" />
          </mxGeometry>
        </mxCell>
        <mxCell id="JVUqe7tK0VFMZShzAbX8-53" value="" style="edgeStyle=orthogonalEdgeStyle;rounded=0;orthogonalLoop=1;jettySize=auto;html=1;" edge="1" parent="1" source="JVUqe7tK0VFMZShzAbX8-28" target="JVUqe7tK0VFMZShzAbX8-52">
          <mxGeometry relative="1" as="geometry" />
        </mxCell>
        <mxCell id="JVUqe7tK0VFMZShzAbX8-28" value="n &amp;gt; 3" style="rhombus;whiteSpace=wrap;html=1;" vertex="1" parent="1">
          <mxGeometry x="368" y="612" width="150" height="80" as="geometry" />
        </mxCell>
        <mxCell id="JVUqe7tK0VFMZShzAbX8-40" value="" style="edgeStyle=orthogonalEdgeStyle;rounded=0;orthogonalLoop=1;jettySize=auto;html=1;" edge="1" parent="1" source="JVUqe7tK0VFMZShzAbX8-39">
          <mxGeometry relative="1" as="geometry">
            <mxPoint x="104" y="652" as="targetPoint" />
          </mxGeometry>
        </mxCell>
        <mxCell id="JVUqe7tK0VFMZShzAbX8-31" value="write &quot;[n]th&quot;" style="shape=parallelogram;perimeter=parallelogramPerimeter;whiteSpace=wrap;html=1;fixedSize=1;" vertex="1" parent="1">
          <mxGeometry x="158" y="622" width="120" height="60" as="geometry" />
        </mxCell>
        <mxCell id="JVUqe7tK0VFMZShzAbX8-46" value="" style="edgeStyle=orthogonalEdgeStyle;rounded=0;orthogonalLoop=1;jettySize=auto;html=1;" edge="1" parent="1" source="JVUqe7tK0VFMZShzAbX8-33" target="JVUqe7tK0VFMZShzAbX8-35">
          <mxGeometry relative="1" as="geometry" />
        </mxCell>
        <mxCell id="JVUqe7tK0VFMZShzAbX8-33" value="" style="shape=waypoint;sketch=0;size=6;pointerEvents=1;points=[];fillColor=default;resizable=0;rotatable=0;perimeter=centerPerimeter;snapToPoint=1;" vertex="1" parent="1">
          <mxGeometry x="94" y="272" width="20" height="20" as="geometry" />
        </mxCell>
        <mxCell id="JVUqe7tK0VFMZShzAbX8-47" value="" style="edgeStyle=orthogonalEdgeStyle;rounded=0;orthogonalLoop=1;jettySize=auto;html=1;" edge="1" parent="1" source="JVUqe7tK0VFMZShzAbX8-35" target="JVUqe7tK0VFMZShzAbX8-37">
          <mxGeometry relative="1" as="geometry" />
        </mxCell>
        <mxCell id="JVUqe7tK0VFMZShzAbX8-35" value="" style="shape=waypoint;sketch=0;size=6;pointerEvents=1;points=[];fillColor=default;resizable=0;rotatable=0;perimeter=centerPerimeter;snapToPoint=1;" vertex="1" parent="1">
          <mxGeometry x="94" y="402" width="20" height="20" as="geometry" />
        </mxCell>
        <mxCell id="JVUqe7tK0VFMZShzAbX8-48" value="" style="edgeStyle=orthogonalEdgeStyle;rounded=0;orthogonalLoop=1;jettySize=auto;html=1;" edge="1" parent="1" source="JVUqe7tK0VFMZShzAbX8-37" target="JVUqe7tK0VFMZShzAbX8-39">
          <mxGeometry relative="1" as="geometry" />
        </mxCell>
        <mxCell id="JVUqe7tK0VFMZShzAbX8-37" value="" style="shape=waypoint;sketch=0;size=6;pointerEvents=1;points=[];fillColor=default;resizable=0;rotatable=0;perimeter=centerPerimeter;snapToPoint=1;" vertex="1" parent="1">
          <mxGeometry x="94" y="522" width="20" height="20" as="geometry" />
        </mxCell>
        <mxCell id="JVUqe7tK0VFMZShzAbX8-45" value="" style="edgeStyle=orthogonalEdgeStyle;rounded=0;orthogonalLoop=1;jettySize=auto;html=1;" edge="1" parent="1" source="JVUqe7tK0VFMZShzAbX8-31" target="JVUqe7tK0VFMZShzAbX8-39">
          <mxGeometry relative="1" as="geometry">
            <mxPoint x="168" y="652" as="sourcePoint" />
            <mxPoint x="104" y="652" as="targetPoint" />
          </mxGeometry>
        </mxCell>
        <mxCell id="JVUqe7tK0VFMZShzAbX8-50" value="" style="edgeStyle=orthogonalEdgeStyle;rounded=0;orthogonalLoop=1;jettySize=auto;html=1;" edge="1" parent="1" source="JVUqe7tK0VFMZShzAbX8-39">
          <mxGeometry relative="1" as="geometry">
            <mxPoint x="104" y="740" as="targetPoint" />
          </mxGeometry>
        </mxCell>
        <mxCell id="JVUqe7tK0VFMZShzAbX8-39" value="" style="shape=waypoint;sketch=0;size=6;pointerEvents=1;points=[];fillColor=default;resizable=0;rotatable=0;perimeter=centerPerimeter;snapToPoint=1;" vertex="1" parent="1">
          <mxGeometry x="94" y="642" width="20" height="20" as="geometry" />
        </mxCell>
        <mxCell id="JVUqe7tK0VFMZShzAbX8-55" value="" style="edgeStyle=orthogonalEdgeStyle;rounded=0;orthogonalLoop=1;jettySize=auto;html=1;" edge="1" parent="1" source="JVUqe7tK0VFMZShzAbX8-52" target="JVUqe7tK0VFMZShzAbX8-54">
          <mxGeometry relative="1" as="geometry" />
        </mxCell>
        <mxCell id="JVUqe7tK0VFMZShzAbX8-52" value="" style="shape=waypoint;sketch=0;size=6;pointerEvents=1;points=[];fillColor=default;resizable=0;rotatable=0;perimeter=centerPerimeter;snapToPoint=1;" vertex="1" parent="1">
          <mxGeometry x="433" y="750" width="20" height="20" as="geometry" />
        </mxCell>
        <mxCell id="JVUqe7tK0VFMZShzAbX8-54" value="" style="shape=waypoint;sketch=0;size=6;pointerEvents=1;points=[];fillColor=default;resizable=0;rotatable=0;perimeter=centerPerimeter;snapToPoint=1;" vertex="1" parent="1">
          <mxGeometry x="114" y="750" width="20" height="20" as="geometry" />
        </mxCell>
        <mxCell id="JVUqe7tK0VFMZShzAbX8-58" value="" style="edgeStyle=orthogonalEdgeStyle;rounded=0;orthogonalLoop=1;jettySize=auto;html=1;" edge="1" parent="1" source="JVUqe7tK0VFMZShzAbX8-56" target="JVUqe7tK0VFMZShzAbX8-57">
          <mxGeometry relative="1" as="geometry" />
        </mxCell>
        <mxCell id="JVUqe7tK0VFMZShzAbX8-56" value="" style="ellipse;whiteSpace=wrap;html=1;aspect=fixed;" vertex="1" parent="1">
          <mxGeometry x="89" y="740" width="30" height="30" as="geometry" />
        </mxCell>
        <mxCell id="JVUqe7tK0VFMZShzAbX8-57" value="END" style="ellipse;whiteSpace=wrap;html=1;" vertex="1" parent="1">
          <mxGeometry x="64" y="825" width="80" height="80" as="geometry" />
        </mxCell>
      </root>
    </mxGraphModel>
  </diagram>
</mxfile>
